<svg width="1200" height="1200" viewBox="0 0 1200 1200" fill="none" xmlns="http://www.w3.org/2000/svg">
<mask id="mask0_409_3640" style="mask-type:alpha" maskUnits="userSpaceOnUse" x="0" y="0" width="1197" height="1197">
<circle cx="598.033" cy="598.033" r="598.033" fill="#D9D9D9"/>
</mask>
<g mask="url(#mask0_409_3640)">
<rect width="1200" height="1200" fill="#F7CB9A"/>
<path d="M1130.2 330.588C1368.24 789.02 949.804 1306.27 450.981 1180C227.059 1124.31 47.0589 930.196 9.80403 702.353C-32.5489 475.686 69.804 232.157 261.177 103.922C523.53 -76.4704 887.059 -16.4704 1074.9 241.569C1076.08 242.745 1075.69 244.706 1074.12 245.883C1072.94 247.059 1070.98 246.667 1069.8 245.098C1043.92 211.765 1014.51 181.569 982.353 154.51C929.412 109.412 867.451 74.1179 801.961 50.1963C468.628 -70.588 102.745 130.196 29.804 478.824C-52.5489 869.412 279.608 1229.02 675.686 1175.29C981.177 1136.86 1208.24 854.902 1183.14 548.235C1177.65 474.118 1158.04 400.785 1125.49 333.334C1124.71 332.157 1125.49 330.588 1126.67 329.804C1127.84 329.02 1129.41 329.412 1130.2 330.588Z" fill="#191919"/>
<path d="M925.883 1091.76C923.138 1093.73 920.001 1095.69 917.256 1097.65C914.118 1099.61 911.373 1101.57 908.236 1103.14C905.491 1104.71 903.138 1106.27 900.393 1107.84C900.001 1108.24 899.609 1108.24 899.216 1108.63C890.197 1114.12 880.785 1119.22 871.373 1123.92C868.628 1125.49 865.491 1127.06 862.746 1128.24C862.746 1128.24 862.354 1128.63 861.962 1128.63C858.824 1130.2 855.687 1131.76 852.55 1133.33C846.275 1136.47 839.609 1139.22 833.334 1141.96C830.197 1143.53 826.667 1144.71 823.53 1145.88C820.393 1147.06 816.864 1148.63 813.726 1149.8C810.589 1150.98 807.06 1152.55 803.922 1153.73C803.922 1153.73 803.922 1153.73 803.53 1153.73C800.393 1154.9 796.864 1156.08 793.726 1157.25C786.667 1159.61 779.216 1161.96 772.158 1164.31C769.805 1165.1 767.06 1165.88 764.707 1166.67C757.256 1169.02 749.805 1170.98 742.354 1172.55C739.609 1173.33 736.864 1173.73 733.726 1174.51C726.667 1176.08 719.216 1177.65 712.158 1179.22C710.589 1179.61 709.413 1179.61 707.844 1180C705.491 1180.39 702.746 1180.78 700.393 1181.18C696.864 1181.57 693.726 1182.35 690.197 1182.74C688.628 1183.14 687.06 1183.14 685.491 1183.53C683.53 1183.92 681.177 1184.31 678.824 1184.31C672.55 1185.1 665.883 1185.88 659.609 1186.67C657.648 1187.06 655.295 1187.06 653.334 1187.45H652.942C650.197 1187.84 647.452 1187.84 644.707 1188.24C641.962 1188.63 639.217 1188.63 636.471 1188.63C634.903 1188.63 632.942 1189.02 631.373 1189.02C628.236 1189.02 625.491 1189.41 622.746 1189.41C618.824 1189.41 615.295 1189.8 611.373 1189.8C607.452 1189.8 603.922 1189.8 600.001 1189.8C597.256 1189.8 594.511 1189.8 591.765 1189.8C426.275 1187.45 277.648 1117.25 171.373 1005.88C171.373 1005.88 171.373 1005.49 170.981 1005.49C159.216 994.902 169.413 938.431 216.864 902.745C276.471 857.647 419.217 829.412 419.217 829.412C419.217 829.412 474.511 820.392 679.609 863.137C799.609 888.235 890.981 924.706 941.962 1023.53C952.55 1043.92 963.138 1075.29 925.883 1091.76Z" fill="white"/>
<path d="M680.785 858.823C756.079 874.118 836.471 890.588 898.432 940.392C919.216 957.255 932.942 981.961 944.315 1005.88C949.805 1017.65 955.295 1029.8 959.609 1042.75C961.962 1051.37 965.491 1061.18 963.53 1071.37C963.138 1074.12 960.785 1077.65 958.824 1079.61C949.805 1088.63 940.001 1094.12 930.197 1101.18C872.55 1141.18 806.275 1169.41 737.648 1184.31C584.707 1217.65 419.216 1191.76 284.707 1111.37C240.001 1084.31 198.824 1051.37 163.53 1012.55C159.609 1007.84 159.609 1000 159.609 994.902C160.001 983.137 163.138 971.765 167.06 961.176C176.471 936.863 188.628 912.549 209.413 895.686C224.315 885.49 240.393 876.863 256.864 869.804C308.628 847.843 363.138 832.549 419.216 826.274C423.922 825.882 424.707 832.549 420.001 833.333C366.275 844.314 312.942 860.784 263.138 883.137C245.099 892.157 225.883 900 211.373 914.118C197.648 929.02 187.844 947.451 180.001 966.274C174.903 977.647 171.373 995.686 172.942 1004.71C197.648 1034.12 226.667 1060 258.04 1082.35C429.805 1202.35 690.589 1210.2 873.334 1110.2C889.805 1101.18 905.883 1090.98 921.177 1080.39C928.628 1075.29 936.471 1070.98 942.354 1065.1C942.746 1064.71 942.354 1065.1 942.354 1065.49C942.354 1065.88 941.962 1066.27 941.962 1066.27C942.354 1061.57 940.785 1055.29 938.824 1049.02C931.765 1026.27 920.393 1002.35 908.236 981.569C889.02 950.588 856.471 930.98 823.53 915.294C800.785 904.706 776.863 896.471 752.55 888.627C728.236 880.784 703.53 874.118 678.824 868.235C672.55 866.667 674.511 857.647 680.785 858.823Z" fill="#191919"/>
<path d="M925.885 1091.76C923.14 1093.73 920.002 1095.69 917.257 1097.65C914.12 1099.61 911.375 1101.57 908.238 1103.14C905.493 1104.71 903.14 1106.27 900.395 1107.84C900.002 1108.24 899.61 1108.24 899.218 1108.63C890.199 1114.12 880.787 1119.22 871.375 1123.92C868.63 1125.49 865.493 1127.06 862.748 1128.24C862.748 1128.24 862.355 1128.63 861.963 1128.63C858.826 1130.2 855.689 1131.77 852.551 1133.33C846.277 1136.47 839.61 1139.22 833.336 1141.96C830.198 1143.53 826.669 1144.71 823.532 1145.88C820.395 1147.06 816.865 1148.63 813.728 1149.8C810.591 1150.98 807.061 1152.55 803.924 1153.73C803.924 1153.73 803.924 1153.73 803.532 1153.73C800.395 1154.9 796.865 1156.08 793.728 1157.26C786.669 1159.61 779.218 1161.96 772.159 1164.31C769.806 1165.1 767.061 1165.88 764.708 1166.67C757.257 1169.02 749.806 1170.98 742.355 1172.55C739.61 1173.33 736.865 1173.73 733.728 1174.51C726.669 1176.08 719.218 1177.65 712.159 1179.22C710.591 1179.61 709.414 1179.61 707.846 1180C705.493 1180.39 702.748 1180.78 700.395 1181.18C696.865 1181.57 693.728 1182.35 690.198 1182.75C688.63 1183.14 687.061 1183.14 685.493 1183.53C683.532 1183.92 681.179 1184.31 678.826 1184.31C672.551 1185.1 665.885 1185.88 659.61 1186.67C657.649 1187.06 655.297 1187.06 653.336 1187.45H652.944C650.198 1187.84 647.453 1187.84 644.708 1188.24C641.963 1188.63 639.218 1188.63 636.473 1188.63C634.904 1188.63 632.944 1189.02 631.375 1189.02C628.238 1189.02 625.493 1189.41 622.748 1189.41C618.826 1189.41 615.297 1189.8 611.375 1189.8C607.453 1189.8 603.924 1189.8 600.002 1189.8C597.257 1189.8 594.512 1189.8 591.767 1189.8C426.277 1187.45 277.649 1117.26 171.375 1005.88C171.375 1005.88 171.375 1005.49 170.983 1005.49C159.218 999.608 167.453 932.549 214.904 896.863C274.512 851.765 419.218 829.412 419.218 829.412C419.218 829.412 474.512 820.392 679.61 863.138C789.414 885.883 891.375 921.961 928.63 984.706C938.826 1001.96 963.532 1035.69 959.218 1061.18C956.865 1074.9 937.65 1081.18 925.885 1091.76Z" fill="white"/>
<path d="M680.787 858.824C753.728 874.51 839.218 888.236 899.218 935.687C937.65 966.275 950.198 1014.9 968.63 1058.82C970.198 1061.57 968.63 1064.31 967.453 1066.67C956.865 1083.14 939.61 1094.12 923.924 1105.1C878.042 1136.08 826.669 1159.61 773.728 1174.9C596.473 1226.27 396.081 1194.12 245.885 1086.27C215.689 1064.71 187.846 1040 163.14 1012.55L165.1 1014.12C158.826 1009.8 157.257 1001.96 157.257 995.295C159.218 967.844 171.375 942.746 183.532 918.432C187.453 911.373 191.767 903.53 198.042 898.04C255.689 845.098 350.591 824.706 426.277 817.647C430.983 817.255 431.375 823.922 427.061 824.706C356.865 837.647 283.924 854.118 224.316 894.902C216.473 901.177 207.061 907.451 201.571 916.079C192.551 930.197 160.787 991.373 172.551 1003.92C254.512 1101.57 377.649 1157.65 502.748 1172.55C625.885 1189.02 755.689 1172.16 865.885 1113.73C881.571 1105.49 896.865 1096.47 911.375 1086.27C924.708 1077.26 938.042 1068.63 948.238 1056.47L947.846 1057.26L947.453 1064.31C946.277 1049.8 938.826 1035.69 934.12 1021.96C928.63 1008.24 922.747 993.726 915.689 981.177C901.571 955.687 877.257 937.648 851.767 923.922C825.493 909.804 796.865 899.608 767.453 890.981C738.042 882.353 708.63 874.902 678.434 868.236C672.551 866.667 674.512 857.647 680.787 858.824Z" fill="#191919"/>
<path d="M223.14 888.236C223.14 888.236 242.747 890.589 269.806 907.059C320.395 938.04 399.61 1130.59 261.571 1245.88C261.571 1245.88 236.865 1390.2 261.571 1417.65C261.571 1417.65 713.336 1440.39 908.238 1417.65C908.238 1417.65 934.12 1332.94 921.571 1242.35C905.885 1127.45 910.591 1006.67 834.904 903.53C800.395 856.471 627.453 815.687 527.453 816.471C426.277 817.648 384.316 828.236 357.649 834.902C330.591 841.961 225.1 867.451 223.14 888.236Z" fill="#191919" stroke="#191919" stroke-width="5.1257" stroke-miterlimit="10" stroke-linecap="round" stroke-linejoin="round"/>
<path d="M234.904 903.922C282.355 860.393 276.865 897.256 365.885 882.746C400.002 877.256 440.394 849.02 492.551 850.197C530.198 850.981 570.983 879.216 619.218 885.491C658.041 890.589 704.316 872.942 750.591 882.354C789.414 890.589 825.492 924.707 870.198 936.864" stroke="white" stroke-width="4" stroke-miterlimit="10" stroke-linecap="round" stroke-linejoin="round"/>
<path d="M238.435 956.079C294.122 922.746 283.533 957.648 371.769 945.491C406.671 940.785 448.239 911.766 500.004 912.158C538.435 912.55 580.004 940.393 628.631 945.099C668.239 949.02 714.514 929.805 761.18 937.648C801.18 944.707 838.435 978.432 883.533 989.02" stroke="white" stroke-width="4" stroke-miterlimit="10" stroke-linecap="round" stroke-linejoin="round"/>
<path d="M241.963 1008.63C303.14 984.315 289.806 1017.26 377.257 1007.84C413.336 1003.92 455.689 974.903 507.453 974.903C546.669 974.903 589.414 1002.35 638.042 1006.28C678.434 1009.41 725.1 988.236 771.767 994.903C812.551 1000.79 851.375 1033.73 897.257 1042.75" stroke="white" stroke-width="4" stroke-miterlimit="10" stroke-linecap="round" stroke-linejoin="round"/>
<path d="M245.492 1061.96C310.198 1045.88 295.296 1076.86 381.963 1069.8C418.826 1066.67 462.355 1038.04 514.12 1037.65C554.512 1037.26 598.434 1064.71 647.061 1067.45C688.63 1069.8 734.904 1046.67 782.355 1051.77C824.316 1056.08 865.1 1088.24 911.375 1095.69" stroke="white" stroke-width="4" stroke-miterlimit="10" stroke-linecap="round" stroke-linejoin="round"/>
<path d="M248.239 1115.29C315.298 1105.88 299.22 1135.29 385.886 1130.98C423.926 1129.02 468.631 1100.39 520.788 1100C561.965 1099.61 607.063 1127.45 656.082 1129.02C698.435 1130.59 745.102 1105.88 792.945 1109.02C836.082 1112.16 878.827 1143.14 925.494 1148.24" stroke="white" stroke-width="4" stroke-miterlimit="10" stroke-linecap="round" stroke-linejoin="round"/>
<path d="M250.981 1168.63C319.609 1164.71 303.138 1193.33 389.805 1191.37C429.02 1190.59 474.903 1162.35 527.06 1162.35C569.413 1162.35 615.295 1190.2 664.707 1190.98C708.236 1191.77 755.295 1165.49 803.138 1167.06C847.452 1168.63 892.158 1198.43 939.609 1201.18" stroke="white" stroke-width="4" stroke-miterlimit="10" stroke-linecap="round" stroke-linejoin="round"/>
<path d="M717.648 963.138C709.413 1003.53 656.079 1027.84 566.275 991.373C472.942 953.726 432.55 863.922 422.354 837.255C477.648 733.726 439.217 661.961 439.217 661.961C566.667 650.981 678.04 800 678.04 800L695.295 873.726C696.864 880 700.001 885.491 704.707 889.412C712.942 903.922 722.746 937.255 717.648 963.138Z" fill="white"/>
<path d="M420.395 838.432C427.846 827.059 432.552 813.726 435.689 800.785C441.571 773.726 443.532 746.275 443.924 718.824V708.628C442.748 698.432 439.218 687.844 435.297 678.432C430.199 665.883 448.63 658.04 454.512 670.589C455.297 672.157 455.297 674.902 455.297 676.471C456.473 729.804 458.826 798.432 425.101 842.746C422.748 845.099 418.042 841.569 420.395 838.432Z" fill="#191919"/>
<path d="M682.354 799.216C688.237 802.746 690.197 807.452 690.982 812.158C693.335 821.569 692.55 831.766 694.903 841.569C696.864 850.981 702.746 860.001 704.315 869.805C706.276 880.001 712.158 901.569 714.511 912.158C715.295 914.511 713.727 917.256 710.982 917.648C709.413 918.04 708.237 917.648 707.06 916.864C701.962 912.55 699.609 908.236 696.472 902.746C691.374 893.334 687.845 884.707 684.707 874.118C681.962 864.707 683.139 854.511 680.786 844.707C678.825 835.295 673.335 826.275 671.374 816.471C670.197 811.765 669.805 806.667 673.335 800.785C675.688 798.432 679.609 797.648 682.354 799.216Z" fill="#191919"/>
<path d="M710.591 902.745C635.689 898.824 574.512 875.294 514.905 769.02C565.101 813.334 624.316 830.196 686.669 838.04L694.905 874.118C696.473 880.392 705.885 898.824 710.591 902.745Z" fill="#191919"/>
<path d="M707.455 888.236C720.788 913.334 728.632 944.706 720.396 972.549C714.122 992.157 696.083 1006.67 676.475 1012.16C630.985 1024.31 578.436 1005.1 538.043 983.53C488.239 955.687 451.377 909.02 427.847 858.04C426.279 854.118 431.769 850.981 434.122 854.902C442.357 871.373 451.769 887.451 462.357 901.961C472.945 916.863 485.102 930.589 498.828 942.745C538.828 978.824 592.945 1001.18 647.063 1001.18C702.749 999.608 723.926 970.196 710.985 916.079C709.024 907.451 705.886 898.432 701.573 890.981C699.22 887.843 705.102 884.314 707.455 888.236Z" fill="#191919"/>
<path d="M859.215 417.255C866.274 450.197 852.548 465.099 852.548 553.334C852.548 597.648 848.235 648.236 839.607 696.863C830.587 747.059 805.489 794.51 763.529 829.805C699.999 882.746 633.333 885.099 554.509 823.53C543.529 814.903 505.097 785.883 495.293 776.079C473.333 754.51 471.372 698.824 457.254 677.255C447.45 662.353 441.568 686.275 419.215 661.569C388.235 627.844 350.98 560.001 369.411 440.001C399.215 245.491 553.333 222.746 667.45 244.314C781.568 265.491 840.391 330.589 859.215 417.255Z" fill="white"/>
<path d="M438.04 695.687C424.315 673.334 405.099 654.51 392.55 631.373C354.511 561.177 346.667 475.687 367.06 398.824C410.589 234.118 570.589 205.883 715.687 250.589C794.118 274.902 851.766 334.118 867.844 415.687C873.726 445.098 861.177 473.334 859.217 501.961C857.256 519.216 856.471 536.471 856.864 553.726C858.824 606.275 857.256 659.608 841.569 710.197C825.491 760.785 799.217 810.981 755.687 843.53C673.726 904.706 576.864 860.001 513.334 795.295C511.373 793.334 514.118 790.197 516.471 791.765C558.04 821.569 602.354 849.804 653.334 855.295C742.354 865.491 804.315 782.353 830.589 707.059C841.962 674.51 847.844 640.393 849.02 606.275C850.197 571.373 847.452 536.471 848.628 501.569C849.02 492.942 849.413 483.922 850.197 475.295C851.373 461.569 854.903 438.824 852.158 425.491C843.922 384.706 825.883 345.491 796.864 315.295C729.02 245.098 601.177 225.098 510.981 257.647C405.099 296.471 377.256 402.746 371.373 504.706C367.452 565.883 385.491 625.491 431.765 667.451L450.197 686.667C457.648 694.51 444.315 705.098 438.04 695.687Z" fill="#191919"/>
<path d="M484.315 570.981C484.315 570.981 472.158 512.157 414.903 519.216C365.491 525.49 348.236 643.922 460.393 676.863" fill="white"/>
<path d="M455.297 625.491C446.277 620.393 440.002 611.766 439.61 601.177C440.002 593.334 441.179 584.315 439.218 576.471C438.042 569.021 430.198 567.06 424.316 567.452C418.042 568.628 414.12 576.472 412.944 582.746C412.944 583.138 412.551 584.315 412.551 584.707C412.159 586.668 409.022 586.668 408.238 584.707C403.14 569.413 414.512 552.55 430.983 554.511C454.12 556.079 457.257 580.393 452.944 598.824C450.591 606.668 453.728 613.726 458.042 620.393L458.826 621.57C460.787 623.922 457.649 627.06 455.297 625.491Z" fill="#191919"/>
<path d="M769.022 529.412C774.904 557.255 785.885 583.137 799.61 607.451C811.767 637.255 780.394 665.49 752.551 664.314C749.414 664.314 749.022 660 751.767 659.216C769.414 653.726 785.492 641.961 788.237 623.922C789.414 618.432 787.845 613.726 785.1 609.02C772.159 584.706 764.316 556.863 766.277 529.412C766.277 527.451 769.022 527.451 769.022 529.412Z" fill="#191919"/>
<path d="M482.354 571.373C473.334 548.236 453.726 526.275 427.452 526.667C425.099 526.275 421.177 527.059 418.824 527.059C412.158 527.451 406.667 529.804 401.569 534.51C376.471 559.608 380.785 603.922 401.177 631.765C408.236 641.569 417.256 650.197 427.452 657.255C437.648 664.314 449.02 669.804 461.177 674.51C463.922 675.295 462.746 679.608 460.001 679.216C433.726 673.726 408.628 660.785 391.373 639.216C364.707 607.059 359.216 553.334 390.981 521.961C398.04 515.687 407.844 510.981 417.648 510.981C420.785 510.981 425.491 510.197 428.628 510.981C445.099 511.765 460.785 520 470.981 532.942C480.001 543.922 485.099 557.255 486.667 570.589C486.667 572.942 483.138 573.726 482.354 571.373Z" fill="#191919"/>
<path d="M730.194 701.96C730.587 708.235 725.881 719.215 717.253 727.058C672.939 700 652.939 714.117 652.939 714.117C637.253 690.196 640.783 657.647 678.822 682.353C705.096 699.607 721.567 702.353 730.194 701.96Z" fill="#191919"/>
<path d="M716.861 727.451C707.449 735.686 693.331 740.784 674.116 732.941C665.096 729.411 658.037 722.352 652.547 714.509C652.939 714.509 672.547 700.392 716.861 727.451Z" fill="white"/>
<path d="M737.645 700.784C737.645 700.784 721.175 709.804 678.822 682.745C628.234 650.196 638.43 718.431 674.116 732.941C711.371 748.235 730.586 714.902 730.194 702.353" stroke="#191919" stroke-width="3" stroke-miterlimit="10" stroke-linecap="round" stroke-linejoin="round"/>
<path d="M652.941 714.509C652.941 714.509 672.941 700.392 717.255 727.451" stroke="#191919" stroke-width="3" stroke-miterlimit="10" stroke-linecap="round" stroke-linejoin="round"/>
<path d="M622.746 569.412C613.334 569.02 606.275 561.177 607.06 551.765L607.452 540.785C607.844 531.373 615.687 524.314 625.099 525.099C634.511 525.491 641.57 533.334 640.785 542.746L640.393 553.726C640.001 562.746 632.158 569.804 622.746 569.412Z" fill="#191919"/>
<path d="M787.843 575.295C779.215 574.903 772.549 567.452 772.941 558.824L773.333 548.628C773.725 540.001 781.176 533.334 789.803 533.726C798.431 534.119 805.098 541.57 804.705 550.197L804.313 560.393C803.921 569.02 796.47 575.687 787.843 575.295Z" fill="#191919"/>
<path d="M658.04 548.236C645.099 539.608 630.981 533.726 615.295 536.863C610.197 537.647 605.099 539.216 601.962 542.746C600.785 544.314 598.04 543.922 598.04 541.569C598.432 533.726 605.099 528.628 611.373 525.491C623.53 519.216 640.393 520.393 651.373 528.628C655.295 530.981 668.628 545.491 661.569 548.628C660.001 549.412 659.217 549.02 658.04 548.236Z" fill="#191919"/>
<path d="M770.197 550.197C770.197 533.726 790.589 527.844 803.138 533.726C810.197 536.863 815.295 543.138 817.256 550.589C818.04 552.942 814.511 554.903 812.942 552.942C806.275 545.099 794.903 541.177 785.883 545.883C783.138 547.452 782.746 548.628 781.962 550.197C781.962 558.04 770.589 557.648 770.197 550.197Z" fill="#191919"/>
<path d="M676.864 483.53C685.099 486.275 693.334 478.824 691.766 469.804C690.981 465.098 689.02 460.392 685.099 456.863C673.334 446.275 624.707 436.863 595.295 450.589C569.413 463.138 639.217 470.981 676.864 483.53Z" fill="#191919"/>
<path d="M794.12 489.804C787.453 492.157 780.394 485.098 781.571 476.863C781.963 472.549 783.532 468.236 786.669 465.098C796.081 455.687 828.237 448.236 848.63 462.745C866.277 474.902 824.708 478.432 794.12 489.804Z" fill="#191919"/>
<path d="M908.26 763.531C862.769 647.452 868.652 610.982 879.632 513.334C901.593 321.178 832.181 274.511 795.711 256.08C640.417 177.256 462.377 215.687 395.319 323.923C353.358 391.374 351.789 445.491 328.26 523.138C287.868 656.08 190.613 714.903 220.809 850.982C262.377 985.099 528.26 1044.31 523.162 904.707C520.024 820.393 456.887 809.021 455.711 692.55C455.711 684.707 456.103 677.256 456.887 670.197C348.652 636.08 365.907 520.001 414.926 513.727C449.044 509.413 467.083 528.629 476.103 544.707C476.887 547.06 478.064 549.021 479.24 551.374C487.083 564.707 579.632 539.609 650.22 496.08C691.397 470.589 755.711 426.668 773.358 378.433C774.142 376.472 786.691 436.864 845.515 515.295C842.769 561.962 854.534 678.433 794.926 774.511C751.789 844.707 697.671 850.982 697.671 850.982C697.671 897.648 780.417 895.295 814.926 903.138C858.064 912.55 900.809 938.433 900.809 938.433C900.809 938.433 950.22 870.589 908.26 763.531Z" fill="#191919"/>
<path d="M686.277 618.039C668.238 618.431 612.552 618.823 595.297 619.216C565.493 619.608 543.14 593.725 545.885 564.314C546.277 554.51 545.885 540.784 546.277 530.98C547.062 505.49 569.807 483.921 595.297 484.706L661.571 485.49C666.669 485.49 681.179 485.882 686.277 485.882C707.454 485.49 727.454 501.176 732.16 521.961C733.728 527.843 733.336 534.118 733.336 539.216V572.549C732.944 597.255 710.983 618.431 686.277 618.039ZM686.277 609.412C706.669 610.196 725.493 592.549 725.885 572.157C726.277 561.569 725.885 550.196 725.885 539.216C728.238 515.294 710.199 493.333 685.885 494.118C669.022 494.51 612.552 494.902 594.905 495.294C573.728 495.294 555.689 514.51 557.258 535.686C557.258 538.431 557.258 545.49 557.258 548.235C557.65 556.863 556.473 571.765 558.434 579.608C562.356 596.078 578.042 608.627 594.905 608.627H603.14C614.513 608.627 674.513 609.412 686.277 609.412Z" fill="#191919"/>
<path d="M844.315 496.079L813.335 496.471C804.707 496.863 794.511 495.294 787.06 500.392C780.001 505.098 776.864 513.726 777.256 521.961C777.256 532.157 777.256 542.745 776.864 552.941L776.472 551.373C781.962 570.588 789.413 589.02 800.786 605.098L796.864 602.745C800.001 603.53 805.491 603.53 808.629 603.53C820.393 603.922 834.119 604.706 845.884 604.706C856.864 604.706 867.452 596.471 869.805 585.49C870.59 582.353 870.59 576.863 870.59 573.726C870.59 556.863 870.982 540.392 870.197 523.53C870.982 508.628 859.609 495.294 844.315 496.079ZM844.315 484.314C865.099 484.314 879.609 504.314 876.08 523.922C875.295 540.785 875.688 557.255 875.688 574.118C877.648 593.726 865.884 611.373 845.492 612.941C836.864 613.334 828.629 613.334 820.393 613.726C816.08 613.726 805.491 614.51 801.57 614.51C799.609 614.902 796.472 614.51 794.511 614.51C792.943 614.51 791.374 613.334 790.59 612.157C778.433 594.118 769.805 574.118 764.707 553.334C764.707 540 763.531 526.667 764.707 513.334C767.06 497.647 781.178 484.314 797.256 483.922C808.237 483.53 833.335 484.314 844.315 484.314Z" fill="#191919"/>
<path d="M729.021 520.392C739.609 515.686 751.374 513.726 763.138 514.51C767.06 514.902 770.982 516.078 774.511 519.216L779.609 523.529C784.707 527.843 778.433 535.294 773.335 530.98C767.06 525.49 759.609 526.275 752.158 526.667C744.707 527.451 737.648 529.02 730.589 531.765C723.923 534.51 719.609 524.706 725.884 521.569C725.884 521.569 729.021 520.392 729.021 520.392Z" fill="#191919"/>
<path d="M552.55 534.51C549.805 540.784 546.668 541.569 541.57 541.176L530.197 541.569C507.452 541.569 484.315 541.177 461.57 537.647C453.727 537.255 453.335 526.275 461.178 525.882L552.158 522.745C554.903 522.745 556.864 525.49 555.688 527.843L552.55 534.51Z" fill="#191919"/>
<path d="M1130.2 330.588C1368.24 789.02 949.804 1306.27 450.981 1180C227.059 1124.31 47.0589 930.196 9.80403 702.353C-32.5489 475.686 69.804 232.157 261.177 103.922C523.53 -76.4704 887.059 -16.4704 1074.9 241.569C1076.08 242.745 1075.69 244.706 1074.12 245.883C1072.94 247.059 1070.98 246.667 1069.8 245.098C1043.92 211.765 1014.51 181.569 982.353 154.51C929.412 109.412 867.451 74.1179 801.961 50.1963C468.628 -70.588 102.745 130.196 29.804 478.824C-52.5489 869.412 279.608 1229.02 675.686 1175.29C981.177 1136.86 1208.24 854.902 1183.14 548.235C1177.65 474.118 1158.04 400.785 1125.49 333.334C1124.71 332.157 1125.49 330.588 1126.67 329.804C1127.84 329.02 1129.41 329.412 1130.2 330.588Z" fill="#191919"/>
</g>
</svg>
