<svg width="1200" height="1200" viewBox="0 0 1200 1200" fill="none" xmlns="http://www.w3.org/2000/svg">
<mask id="mask0_409_3640" style="mask-type:alpha" maskUnits="userSpaceOnUse" x="0" y="0" width="1197" height="1197">
<circle cx="598.033" cy="598.033" r="598.033" fill="#D9D9D9"/>
</mask>
<g mask="url(#mask0_409_3640)">
<rect width="1200" height="1200" fill="#F6C1A7"/>
<path d="M1130.2 330.588C1368.24 789.02 949.804 1306.27 450.981 1180C227.059 1124.31 47.0589 930.196 9.80403 702.353C-32.5489 475.686 69.804 232.157 261.177 103.922C523.53 -76.4704 887.059 -16.4704 1074.9 241.569C1076.08 242.745 1075.69 244.706 1074.12 245.883C1072.94 247.059 1070.98 246.667 1069.8 245.098C1043.92 211.765 1014.51 181.569 982.353 154.51C929.412 109.412 867.451 74.1179 801.961 50.1963C468.628 -70.588 102.745 130.196 29.804 478.824C-52.5489 869.412 279.608 1229.02 675.686 1175.29C981.177 1136.86 1208.24 854.902 1183.14 548.235C1177.65 474.118 1158.04 400.785 1125.49 333.334C1124.71 332.157 1125.49 330.588 1126.67 329.804C1127.84 329.02 1129.41 329.412 1130.2 330.588Z" fill="#191919"/>
<path d="M925.883 1091.76C923.138 1093.73 920.001 1095.69 917.256 1097.65C914.118 1099.61 911.373 1101.57 908.236 1103.14C905.491 1104.71 903.138 1106.27 900.393 1107.84C900.001 1108.24 899.609 1108.24 899.216 1108.63C890.197 1114.12 880.785 1119.22 871.373 1123.92C868.628 1125.49 865.491 1127.06 862.746 1128.24C862.746 1128.24 862.354 1128.63 861.962 1128.63C858.824 1130.2 855.687 1131.76 852.55 1133.33C846.275 1136.47 839.609 1139.22 833.334 1141.96C830.197 1143.53 826.667 1144.71 823.53 1145.88C820.393 1147.06 816.864 1148.63 813.726 1149.8C810.589 1150.98 807.06 1152.55 803.922 1153.73C803.922 1153.73 803.922 1153.73 803.53 1153.73C800.393 1154.9 796.864 1156.08 793.726 1157.25C786.667 1159.61 779.216 1161.96 772.158 1164.31C769.805 1165.1 767.06 1165.88 764.707 1166.67C757.256 1169.02 749.805 1170.98 742.354 1172.55C739.609 1173.33 736.864 1173.73 733.726 1174.51C726.667 1176.08 719.216 1177.65 712.158 1179.22C710.589 1179.61 709.413 1179.61 707.844 1180C705.491 1180.39 702.746 1180.78 700.393 1181.18C696.864 1181.57 693.726 1182.35 690.197 1182.74C688.628 1183.14 687.06 1183.14 685.491 1183.53C683.53 1183.92 681.177 1184.31 678.824 1184.31C672.55 1185.1 665.883 1185.88 659.609 1186.67C657.648 1187.06 655.295 1187.06 653.334 1187.45H652.942C650.197 1187.84 647.452 1187.84 644.707 1188.24C641.962 1188.63 639.217 1188.63 636.471 1188.63C634.903 1188.63 632.942 1189.02 631.373 1189.02C628.236 1189.02 625.491 1189.41 622.746 1189.41C618.824 1189.41 615.295 1189.8 611.373 1189.8C607.452 1189.8 603.922 1189.8 600.001 1189.8C597.256 1189.8 594.511 1189.8 591.765 1189.8C426.275 1187.45 277.648 1117.25 171.373 1005.88C171.373 1005.88 171.373 1005.49 170.981 1005.49C159.216 994.902 169.413 938.431 216.864 902.745C276.471 857.647 419.217 829.412 419.217 829.412C419.217 829.412 474.511 820.392 679.609 863.137C799.609 888.235 890.981 924.706 941.962 1023.53C952.55 1043.92 963.138 1075.29 925.883 1091.76Z" fill="white"/>
<path d="M680.785 858.823C756.079 874.118 836.471 890.588 898.432 940.392C919.216 957.255 932.942 981.961 944.315 1005.88C949.805 1017.65 955.295 1029.8 959.609 1042.75C961.962 1051.37 965.491 1061.18 963.53 1071.37C963.138 1074.12 960.785 1077.65 958.824 1079.61C949.805 1088.63 940.001 1094.12 930.197 1101.18C872.55 1141.18 806.275 1169.41 737.648 1184.31C584.707 1217.65 419.216 1191.76 284.707 1111.37C240.001 1084.31 198.824 1051.37 163.53 1012.55C159.609 1007.84 159.609 1000 159.609 994.902C160.001 983.137 163.138 971.765 167.06 961.176C176.471 936.863 188.628 912.549 209.413 895.686C224.315 885.49 240.393 876.863 256.864 869.804C308.628 847.843 363.138 832.549 419.216 826.274C423.922 825.882 424.707 832.549 420.001 833.333C366.275 844.314 312.942 860.784 263.138 883.137C245.099 892.157 225.883 900 211.373 914.118C197.648 929.02 187.844 947.451 180.001 966.274C174.903 977.647 171.373 995.686 172.942 1004.71C197.648 1034.12 226.667 1060 258.04 1082.35C429.805 1202.35 690.589 1210.2 873.334 1110.2C889.805 1101.18 905.883 1090.98 921.177 1080.39C928.628 1075.29 936.471 1070.98 942.354 1065.1C942.746 1064.71 942.354 1065.1 942.354 1065.49C942.354 1065.88 941.962 1066.27 941.962 1066.27C942.354 1061.57 940.785 1055.29 938.824 1049.02C931.765 1026.27 920.393 1002.35 908.236 981.569C889.02 950.588 856.471 930.98 823.53 915.294C800.785 904.706 776.863 896.471 752.55 888.627C728.236 880.784 703.53 874.118 678.824 868.235C672.55 866.667 674.511 857.647 680.785 858.823Z" fill="#191919"/>
<path d="M1056.08 1334.9H64.3113C64.3113 1334.9 110.586 1185.1 145.488 1046.67C159.213 992.55 184.703 918.824 216.076 897.256C259.213 867.452 330.586 850.589 362.743 839.216C385.096 831.373 402.35 828.628 418.429 824.314C418.429 826.275 418.821 827.844 418.821 829.805C418.821 829.805 454.507 909.805 564.703 954.118C654.507 990.589 685.88 976.079 694.115 935.687C699.213 909.805 712.154 903.922 703.919 890.197C699.213 886.275 696.076 880.393 694.507 874.511L691.37 861.569C698.821 860.001 705.88 858.04 712.939 855.687C715.292 854.903 717.252 854.118 719.605 853.334C763.135 878.04 823.135 885.883 895.684 939.216C908.625 948.628 946.272 989.413 961.958 1088.63C983.919 1219.22 1056.08 1334.9 1056.08 1334.9Z" fill="#191919"/>
<path d="M1063.14 1338.82C768.627 1340 354.509 1343.92 64.3129 1343.14C59.607 1343.14 56.0776 1339.61 56.0776 1334.9C67.4502 1286.27 85.8816 1216.08 98.4306 1167.06C108.235 1127.45 120.391 1083.14 130.195 1043.14C144.313 990.98 161.96 923.137 206.274 888.627C220.784 879.216 236.862 872.549 252.156 866.667C285.882 854.118 320.391 844.706 354.901 834.117C374.509 826.667 396.47 821.961 416.862 816.078C421.176 814.902 425.489 817.255 426.666 821.176C427.058 822.353 427.058 827.451 427.45 828.627L419.215 821.176C422.352 821.176 425.489 823.137 426.666 825.882C429.803 832.549 434.117 839.608 438.431 845.882C479.999 905.882 547.058 944.314 616.862 962.353C636.862 966.666 663.529 971.765 678.038 954.118C687.45 941.961 687.058 923.137 694.509 909.804C697.254 903.529 700.391 899.608 697.254 894.118L698.823 896.078C693.725 891.372 689.803 885.49 687.842 879.216C686.274 873.333 685.097 868.235 683.921 863.137C682.744 858.823 685.882 854.118 690.195 853.333C699.215 851.372 708.627 848.627 717.254 845.49C719.607 844.706 721.96 845.098 723.921 845.882C735.293 850.98 747.058 855.294 759.215 859.608C797.254 871.765 835.293 884.706 870.195 904.706C881.96 911.372 893.333 918.823 904.313 926.667C917.254 936.47 925.489 947.451 933.725 960.392C963.529 1007.06 972.94 1060.78 982.744 1114.12C997.646 1183.14 1023.53 1249.8 1054.12 1313.33L1058.43 1321.96L1060.39 1326.27L1061.57 1328.24L1061.96 1329.41L1062.35 1329.8C1062.35 1329.41 1062.74 1330.2 1063.14 1331.37C1064.71 1334.12 1064.31 1337.25 1063.14 1338.82ZM1049.02 1330.98C1047.84 1332.55 1047.45 1335.29 1048.23 1337.25C1048.63 1338.43 1049.02 1339.22 1049.02 1338.82L1048.63 1338.43L1047.84 1337.25L1046.67 1335.29C1020.78 1290.98 999.215 1244.31 982.352 1196.08C971.372 1164.71 962.352 1132.94 956.47 1100C949.411 1056.47 938.431 1010.98 914.901 973.333C908.627 963.529 900.784 952.941 891.372 945.882C880.784 938.431 870.195 930.98 859.215 924.706C837.254 911.372 813.725 900.784 789.803 891.372C765.882 881.568 740.391 874.117 716.47 860.392L723.136 860.784C713.725 864.314 703.921 867.059 693.725 869.019L699.999 859.216C702.352 867.843 702.744 878.039 709.803 883.921C714.117 888.627 716.078 896.863 714.901 903.529C713.725 909.412 711.372 913.333 709.803 916.863C706.274 924.314 703.921 930.588 702.352 938.823C688.627 1007.06 609.803 980.784 565.097 963.137C502.352 938.039 443.921 894.118 412.156 833.333L419.607 838.039C415.293 838.039 411.764 834.902 411.372 830.588L410.98 825.49L421.176 832.549C399.215 836.47 379.607 839.608 359.215 847.059C312.548 861.568 262.744 873.725 222.352 901.568C180.391 932.157 156.47 1040.78 143.136 1090.98C128.627 1146.27 113.333 1201.18 97.2541 1255.69C89.0188 1283.14 80.7835 1310.2 72.1561 1337.65L64.3129 1327.06C349.019 1326.67 760.391 1328.63 1049.02 1330.98Z" fill="#191919"/>
<path d="M658.429 983.531C658.821 983.923 658.821 983.923 659.214 984.315C659.214 983.923 659.214 983.531 659.214 983.531C659.214 983.531 658.821 983.531 658.429 983.531Z" fill="white"/>
<path d="M752.157 838.04C752.157 838.04 752.157 800.393 719.216 790.589C658.432 772.158 543.53 763.922 466.667 763.922C466.667 763.922 434.118 766.275 422.354 772.158C410.981 777.648 397.255 781.177 394.118 806.667C392.55 819.216 392.55 839.216 392.942 856.864C393.334 880.393 402.746 903.138 419.216 920.001C445.491 947.06 500.001 982.354 562.353 992.942C712.55 1018.04 753.334 952.55 752.157 917.648C750.589 877.256 752.157 838.04 752.157 838.04Z" fill="#191919"/>
<path d="M743.922 837.648C743.138 820.785 734.118 802.746 716.863 798.04C711.373 796.471 705.883 794.903 700.785 793.726C624.314 776.863 545.099 772.942 466.667 771.765C456.471 772.942 436.863 774.511 425.491 779.216C420.785 781.569 414.903 783.922 410.981 787.06C401.961 794.903 401.569 808.628 401.177 820.785C400.785 827.844 400.785 834.903 400.785 841.962C398.432 889.805 419.609 915.295 457.648 940.785C486.275 960.393 518.432 974.511 552.55 982.354C599.216 991.373 650.981 995.687 695.687 977.648C719.216 968.236 741.177 948.236 743.922 922.354C744.314 916.863 743.922 907.452 743.922 901.962C743.138 881.569 743.138 858.432 743.922 837.648ZM760.001 838.04C759.609 858.824 759.609 881.177 760.001 901.962C760.001 908.628 760.785 918.04 760.001 924.314C756.471 957.256 730.197 981.962 701.569 993.726C656.471 1012.55 606.275 1009.41 559.216 1001.96C549.02 1000 536.471 997.256 526.667 994.118C484.314 980.393 444.707 958.432 412.942 927.06C390.197 904.707 381.569 873.334 383.53 842.354C384.707 819.609 380.785 792.55 399.609 774.903C405.491 770.197 411.373 767.452 417.648 764.707C433.726 758.432 449.412 757.256 465.883 755.687C518.824 756.079 571.765 758.824 624.707 765.099C656.079 769.02 687.844 773.334 718.432 782.354L720.785 783.138L723.53 784.314C737.256 790.981 743.138 805.491 750.981 817.256C756.079 823.53 759.609 830.197 760.001 838.04Z" fill="#191919"/>
<path d="M395.685 856.471C404.313 982.354 598.43 1116.86 713.725 1047.06C743.921 1026.67 752.156 987.844 751.372 953.726C751.372 941.961 750.195 930.197 749.411 918.04C749.019 915.295 753.725 914.51 754.117 917.256C770.587 983.138 762.352 1056.08 685.489 1075.69C577.646 1101.96 455.293 1022.75 407.842 927.844C396.862 905.883 389.803 881.569 389.411 857.256C389.803 853.334 395.293 852.55 395.685 856.471Z" fill="white"/>
<path d="M717.644 963.137C709.409 1003.53 656.075 1027.84 566.271 991.372C472.938 953.725 432.546 863.921 422.35 837.255C477.644 733.725 439.213 661.961 439.213 661.961C566.664 650.98 678.036 800 678.036 800L695.291 873.725C696.86 880 699.997 885.49 704.703 889.412C712.938 903.921 722.742 937.255 717.644 963.137Z" fill="white"/>
<path d="M420.391 838.431C427.842 827.059 432.548 813.726 435.685 800.784C441.567 773.726 443.528 746.275 443.92 718.824V708.627C442.744 698.431 439.214 687.843 435.293 678.431C430.195 665.882 448.626 658.039 454.508 670.588C455.293 672.157 455.293 674.902 455.293 676.471C456.469 729.804 458.822 798.431 425.097 842.745C422.744 845.098 418.038 841.569 420.391 838.431Z" fill="#191919"/>
<path d="M682.35 799.216C688.233 802.745 690.194 807.451 690.978 812.157C693.331 821.569 692.546 831.765 694.899 841.569C696.86 850.981 702.743 860 704.311 869.804C706.272 880 712.154 901.569 714.507 912.157C715.292 914.51 713.723 917.255 710.978 917.647C709.409 918.04 708.233 917.647 707.056 916.863C701.958 912.549 699.605 908.236 696.468 902.745C691.37 893.334 687.841 884.706 684.703 874.118C681.958 864.706 683.135 854.51 680.782 844.706C678.821 835.294 673.331 826.275 671.37 816.471C670.194 811.765 669.801 806.667 673.331 800.785C675.684 798.432 679.605 797.647 682.35 799.216Z" fill="#191919"/>
<path d="M710.587 902.745C635.685 898.823 574.508 875.294 514.901 769.02C565.097 813.333 624.312 830.196 686.665 838.039L694.901 874.117C696.469 880.392 705.881 898.823 710.587 902.745Z" fill="#191919"/>
<path d="M707.451 888.235C720.785 913.333 728.628 944.706 720.392 972.549C714.118 992.157 696.079 1006.67 676.471 1012.16C630.981 1024.31 578.432 1005.1 538.039 983.529C488.236 955.686 451.373 909.019 427.843 858.039C426.275 854.117 431.765 850.98 434.118 854.902C442.353 871.372 451.765 887.451 462.353 901.961C472.941 916.863 485.098 930.588 498.824 942.745C538.824 978.823 592.941 1001.18 647.059 1001.18C702.745 999.608 723.922 970.196 710.981 916.078C709.02 907.451 705.883 898.431 701.569 890.98C699.216 887.843 705.098 884.314 707.451 888.235Z" fill="#191919"/>
<path d="M859.214 417.255C866.273 450.196 860.783 472.157 857.645 563.137C854.508 652.549 828.626 778.824 796.861 810.588C772.547 834.51 694.508 853.334 625.096 835.686C589.802 826.667 559.998 806.275 535.685 791.765C505.096 773.333 478.43 716.471 456.469 680C439.214 651.373 440.783 685.883 418.43 661.177C387.449 627.451 350.194 559.608 368.626 439.608C398.43 245.098 552.547 222.353 666.665 243.922C781.567 265.49 840.391 330.588 859.214 417.255Z" fill="white"/>
<path d="M438.039 695.686C429.02 680.784 417.255 667.451 406.667 653.333C390.981 631.765 379.216 607.059 371.373 581.569C337.255 472.549 358.039 329.804 461.177 265.49C554.902 205.882 736.863 227.451 812.941 309.02C841.569 338.431 860 376.863 867.843 416.863C868.236 419.216 869.412 423.529 869.804 425.882C870.196 427.843 871.373 430.196 870.981 432.549C870.196 441.177 868.628 449.804 867.843 458.431C861.961 510.588 863.53 563.922 856.863 616.078C850.981 670.98 843.138 725.882 826.667 778.824C821.569 794.902 811.765 809.412 798.824 820C769.804 844.314 731.765 852.549 695.294 854.118C622.353 857.647 548.236 831.765 505.883 770.196C504.314 767.843 507.451 765.098 509.412 767.451C544.706 805.49 592.549 829.804 643.53 835.294C700 841.961 785.098 836.863 809.804 776.471C838.432 690.98 853.334 600.392 854.902 510.588C854.902 488.627 853.726 466.667 853.726 444.314C853.726 441.569 854.118 435.294 854.118 432.549C854.118 432.549 854.118 432.157 854.118 432.549C854.118 432.941 854.118 432.941 854.118 432.549C850.981 424.706 849.804 416.078 847.451 408.235C838.824 375.686 823.138 344.706 800.785 320C726.667 236.863 561.569 216.078 469.02 278.431C395.686 327.059 376.079 420.392 370.981 502.745C366.667 564.314 384.706 624.706 431.373 667.059L449.804 686.275C457.647 694.902 444.314 705.098 438.039 695.686Z" fill="#191919"/>
<path d="M484.315 570.98C484.315 570.98 472.158 512.157 414.904 519.215C365.492 525.49 348.237 643.921 460.394 676.863" fill="white"/>
<path d="M455.293 625.491C446.273 620.393 439.999 611.765 439.606 601.177C439.999 593.334 441.175 584.314 439.214 576.471C438.038 569.02 430.195 567.059 424.312 567.451C418.038 568.628 414.116 576.471 412.94 582.746C412.94 583.138 412.548 584.314 412.548 584.706C412.155 586.667 409.018 586.667 408.234 584.706C403.136 569.412 414.508 552.549 430.979 554.51C454.116 556.079 457.253 580.393 452.94 598.824C450.587 606.667 453.724 613.726 458.038 620.393L458.822 621.569C460.783 623.922 457.646 627.059 455.293 625.491Z" fill="#191919"/>
<path d="M769.022 529.412C774.904 557.255 785.885 583.137 799.61 607.451C811.767 637.255 780.394 665.49 752.551 664.313C749.414 664.313 749.022 660 751.767 659.215C769.414 653.725 785.492 641.961 788.237 623.921C789.414 618.431 787.845 613.725 785.1 609.019C772.159 584.706 764.316 556.862 766.277 529.412C766.277 527.451 769.022 527.451 769.022 529.412Z" fill="#191919"/>
<path d="M482.353 571.373C473.334 548.235 453.726 526.275 427.451 526.667C425.098 526.275 421.177 527.059 418.824 527.059C412.157 527.451 406.667 529.804 401.569 534.51C376.471 559.608 380.785 603.922 401.177 631.765C408.236 641.569 417.255 650.196 427.451 657.255C437.647 664.314 449.02 669.804 461.177 674.51C463.922 675.294 462.745 679.608 460 679.216C433.726 673.725 408.628 660.784 391.373 639.216C364.706 607.059 359.216 553.333 390.981 521.961C398.039 515.686 407.843 510.98 417.647 510.98C420.785 510.98 425.49 510.196 428.628 510.98C445.098 511.765 460.785 520 470.981 532.941C480 543.922 485.098 557.255 486.667 570.588C486.667 572.941 483.138 573.725 482.353 571.373Z" fill="#191919"/>
<path d="M739.609 684.314C754.118 675.686 767.06 691.373 759.216 705.098C757.256 709.02 754.903 711.765 752.158 714.902L751.765 705.49C766.275 718.039 762.746 736.863 745.883 744.706C743.138 745.882 730.197 749.804 730.197 745.098C730.197 743.922 730.981 743.137 732.158 743.137C741.961 742.745 755.295 732.941 751.373 721.961C750.197 719.216 747.452 716.079 745.099 714.902C742.354 713.333 741.569 710.196 743.138 707.451C746.275 703.922 753.726 700 753.726 693.333C752.942 687.451 747.06 685.49 741.569 687.451C739.216 688.628 737.648 685.49 739.609 684.314Z" fill="#191919"/>
<path d="M641.176 541.569C641.176 541.961 641.176 542.353 641.176 542.353L640.784 553.334C640.392 562.746 632.549 569.804 623.137 569.412C613.725 569.02 606.666 560.785 607.451 551.765L607.843 540.785C607.843 538.824 608.627 536.471 609.411 534.902L640.784 536.471C640.784 538.04 641.176 539.608 641.176 541.569Z" fill="#191919"/>
<path d="M805.096 550.197L804.704 560.393C804.312 569.02 796.861 575.687 788.234 575.295C779.606 574.902 772.939 567.451 773.332 558.824L773.724 548.628C773.724 546.667 774.116 544.706 774.9 543.138L804.312 544.314C804.704 546.275 805.096 548.236 805.096 550.197Z" fill="#191919"/>
<path d="M680.39 487.843C689.018 489.02 695.685 480 692.547 471.373C690.979 466.667 688.234 462.353 683.92 459.608C670.587 451.373 620.783 450.589 594.508 469.412C570.979 486.667 641.175 482.353 680.39 487.843Z" fill="#191919"/>
<path d="M789.018 492.157C781.959 492.157 777.645 483.138 781.175 475.687C783.135 471.765 785.881 468.236 789.802 466.275C801.959 460.393 834.508 463.922 849.018 483.922C861.959 501.569 821.567 491.765 789.018 492.157Z" fill="#191919"/>
<path d="M666.271 541.569L601.565 540.392C593.722 540 594.114 528.236 601.958 528.628L666.663 533.334C672.154 533.726 671.761 541.569 666.271 541.569Z" fill="#191919"/>
<path d="M821.569 548.235L773.725 549.02C765.882 549.02 765.49 537.647 773.333 537.255C773.725 537.255 773.725 537.255 774.118 537.255L821.961 542.353C825.49 542.745 825.098 547.843 821.569 548.235Z" fill="#191919"/>
<path d="M889.021 323.922C916.864 223.138 803.923 160 773.726 205.491C751.766 238.432 667.06 212.942 538.432 210.589C409.805 207.843 375.295 276.079 373.726 349.412C373.726 349.412 317.256 379.216 320.785 484.314C324.315 593.334 436.472 681.177 450.197 736.471C450.197 736.471 451.766 743.53 436.864 667.843C351.374 626.667 369.413 525.098 415.295 519.216C450.197 514.902 468.628 535.294 477.256 551.765C480.785 556.471 514.119 597.255 514.903 463.922C515.295 372.942 603.923 343.138 704.707 380C757.256 399.216 812.55 413.334 850.589 385.883C856.864 403.922 863.53 423.922 858.432 448.236C873.726 434.118 886.668 413.334 890.197 387.843C892.55 372.549 888.628 359.216 880.001 347.451C883.53 340.785 886.668 332.549 889.021 323.922Z" fill="#191919"/>
<path d="M440.392 583.137C440.392 583.137 409.02 578.431 411.373 622.352C412.549 644.705 412.549 656.862 412.157 663.137C411.765 667.451 414.51 671.372 418.431 672.941C423.137 674.901 428.235 672.941 430.588 668.235C434.118 661.96 438.039 653.333 438.039 646.274C438.039 634.509 450.588 623.921 450.588 623.921C450.588 623.921 439.216 614.117 440.392 583.137Z" fill="white"/>
<path d="M439.216 584.313C439.216 584.706 439.608 585.098 440 585.098C440 585.098 440 585.098 439.608 585.098H438.824C420 586.666 414.118 603.137 414.902 620C415.294 630.98 416.079 641.961 415.686 652.549C416.471 658.431 412.941 666.274 418.824 669.412C422.353 671.372 427.059 669.804 428.628 665.882C432.157 658.823 435.686 651.764 435.686 643.921C437.255 634.902 443.137 627.843 449.412 622.353V625.49C441.177 616.863 439.216 605.098 438.039 594.117C438.431 591.372 438.431 587.059 439.216 584.313ZM441.961 581.568C443.137 592.549 443.137 603.921 447.843 613.725C449.02 616.47 450.981 619.608 453.333 621.568C454.902 622.745 454.902 625.098 453.333 626.274C447.843 631.372 443.137 637.647 442.353 644.706C442.353 653.333 438.824 661.568 434.902 669.019C431.765 675.686 422.745 679.215 416.079 675.294C411.765 672.941 408.628 668.235 408.628 663.137C408.628 659.215 409.02 656.078 409.02 652.157C409.02 641.176 408.235 630.588 407.843 619.608C407.843 612.549 408.235 604.313 411.373 597.255C415.294 586.274 427.451 578.823 439.216 580.784C440.392 580.784 441.569 581.176 441.961 581.568Z" fill="#191919"/>
<path d="M435.294 1047.45C448.235 990.98 431.373 927.451 416.863 870.98C410.981 848.627 405.098 827.451 402.353 809.019C397.255 778.039 400.785 748.627 413.334 721.176C428.628 687.058 426.275 658.039 426.275 656.862L418.432 657.647C418.432 658.039 420.785 686.274 406.275 718.039C393.334 746.666 389.412 777.647 394.51 810.196C397.647 829.019 403.137 850.588 409.02 872.941C423.53 928.235 440 990.98 427.451 1045.49C420.392 1075.69 434.118 1125.1 453.726 1174.51C456.863 1174.9 459.608 1175.29 462.745 1175.69C442.745 1126.27 428.628 1076.47 435.294 1047.45Z" fill="#191919"/>
<path d="M412.549 645.098C412.941 653.725 412.549 659.608 412.549 663.137C412.157 667.451 414.902 671.372 418.824 672.941C423.53 674.902 428.628 672.941 430.981 668.235C434.51 661.96 438.432 653.333 438.432 646.274C438.432 645.882 438.432 645.098 438.432 644.706C430.588 647.843 421.177 650.196 412.549 645.098Z" fill="white"/>
<path d="M413.726 646.666C414.118 652.156 414.51 657.254 414.51 662.745C414.118 665.098 414.902 667.451 416.471 669.411C421.569 674.509 428.628 671.372 430.588 665.098C433.726 658.823 436.471 652.156 436.471 645.098L439.216 647.058C430.588 648.627 421.569 650.98 413.334 647.451C413.334 647.451 413.726 647.058 413.726 646.666ZM411.765 643.137C412.549 643.137 414.118 643.529 414.902 644.313C421.961 649.411 430.981 647.058 438.039 643.137C439.216 642.353 441.177 643.529 440.785 645.098C440.392 654.117 436.863 662.745 432.157 670.588C427.843 676.47 418.824 676.862 413.726 671.764C411.373 669.411 410.196 665.49 410.588 662.353C410.588 655.686 411.373 649.411 411.765 643.137Z" fill="#191919"/>
<path d="M781.961 905.882C788.628 859.607 782.353 826.666 780 816.862C778.824 817.647 778.039 818.823 776.863 819.607C775.687 820.784 774.51 821.568 773.334 822.745C775.687 835.294 780 865.098 774.118 904.705C771.373 923.137 770.589 952.156 770.196 985.882C769.412 1018.43 759.216 1099.61 747.059 1176.47C749.804 1175.69 752.549 1174.9 755.294 1174.51C767.451 1098.43 777.255 1018.82 778.039 986.274C778.824 952.549 779.216 923.921 781.961 905.882Z" fill="#191919"/>
<path d="M1130.2 330.588C1368.24 789.02 949.804 1306.27 450.981 1180C227.059 1124.31 47.0589 930.196 9.80403 702.353C-32.5489 475.686 69.804 232.157 261.177 103.922C523.53 -76.4704 887.059 -16.4704 1074.9 241.569C1076.08 242.745 1075.69 244.706 1074.12 245.883C1072.94 247.059 1070.98 246.667 1069.8 245.098C1043.92 211.765 1014.51 181.569 982.353 154.51C929.412 109.412 867.451 74.1179 801.961 50.1963C468.628 -70.588 102.745 130.196 29.804 478.824C-52.5489 869.412 279.608 1229.02 675.686 1175.29C981.177 1136.86 1208.24 854.902 1183.14 548.235C1177.65 474.118 1158.04 400.785 1125.49 333.334C1124.71 332.157 1125.49 330.588 1126.67 329.804C1127.84 329.02 1129.41 329.412 1130.2 330.588Z" fill="#191919"/>
</g>
</svg>
