<svg width="1200" height="1200" viewBox="0 0 1200 1200" fill="none" xmlns="http://www.w3.org/2000/svg">
<mask id="mask0_409_3640" style="mask-type:alpha" maskUnits="userSpaceOnUse" x="0" y="0" width="1197" height="1197">
<circle cx="598.033" cy="598.033" r="598.033" fill="#D9D9D9"/>
</mask>
<g mask="url(#mask0_409_3640)">
<rect width="1200" height="1200" fill="#B6C796"/>
<path d="M1130.2 330.588C1368.24 789.02 949.804 1306.27 450.981 1180C227.059 1124.31 47.0589 930.196 9.80403 702.353C-32.5489 475.686 69.804 232.157 261.177 103.922C523.53 -76.4704 887.059 -16.4704 1074.9 241.569C1076.08 242.745 1075.69 244.706 1074.12 245.883C1072.94 247.059 1070.98 246.667 1069.8 245.098C1043.92 211.765 1014.51 181.569 982.353 154.51C929.412 109.412 867.451 74.1179 801.961 50.1963C468.628 -70.588 102.745 130.196 29.804 478.824C-52.5489 869.412 279.608 1229.02 675.686 1175.29C981.177 1136.86 1208.24 854.902 1183.14 548.235C1177.65 474.118 1158.04 400.785 1125.49 333.334C1124.71 332.157 1125.49 330.588 1126.67 329.804C1127.84 329.02 1129.41 329.412 1130.2 330.588Z" fill="#191919"/>
<path d="M925.883 1091.76C923.138 1093.73 920.001 1095.69 917.256 1097.65C914.118 1099.61 911.373 1101.57 908.236 1103.14C905.491 1104.71 903.138 1106.27 900.393 1107.84C900.001 1108.24 899.609 1108.24 899.216 1108.63C890.197 1114.12 880.785 1119.22 871.373 1123.92C868.628 1125.49 865.491 1127.06 862.746 1128.24C862.746 1128.24 862.354 1128.63 861.962 1128.63C858.824 1130.2 855.687 1131.76 852.55 1133.33C846.275 1136.47 839.609 1139.22 833.334 1141.96C830.197 1143.53 826.667 1144.71 823.53 1145.88C820.393 1147.06 816.864 1148.63 813.726 1149.8C810.589 1150.98 807.06 1152.55 803.922 1153.73C803.922 1153.73 803.922 1153.73 803.53 1153.73C800.393 1154.9 796.864 1156.08 793.726 1157.25C786.667 1159.61 779.216 1161.96 772.158 1164.31C769.805 1165.1 767.06 1165.88 764.707 1166.67C757.256 1169.02 749.805 1170.98 742.354 1172.55C739.609 1173.33 736.864 1173.73 733.726 1174.51C726.667 1176.08 719.216 1177.65 712.158 1179.22C710.589 1179.61 709.413 1179.61 707.844 1180C705.491 1180.39 702.746 1180.78 700.393 1181.18C696.864 1181.57 693.726 1182.35 690.197 1182.74C688.628 1183.14 687.06 1183.14 685.491 1183.53C683.53 1183.92 681.177 1184.31 678.824 1184.31C672.55 1185.1 665.883 1185.88 659.609 1186.67C657.648 1187.06 655.295 1187.06 653.334 1187.45H652.942C650.197 1187.84 647.452 1187.84 644.707 1188.24C641.962 1188.63 639.217 1188.63 636.471 1188.63C634.903 1188.63 632.942 1189.02 631.373 1189.02C628.236 1189.02 625.491 1189.41 622.746 1189.41C618.824 1189.41 615.295 1189.8 611.373 1189.8C607.452 1189.8 603.922 1189.8 600.001 1189.8C597.256 1189.8 594.511 1189.8 591.765 1189.8C426.275 1187.45 277.648 1117.25 171.373 1005.88C171.373 1005.88 171.373 1005.49 170.981 1005.49C159.216 994.902 169.413 938.431 216.864 902.745C276.471 857.647 419.217 829.412 419.217 829.412C419.217 829.412 474.511 820.392 679.609 863.137C799.609 888.235 890.981 924.706 941.962 1023.53C952.55 1043.92 963.138 1075.29 925.883 1091.76Z" fill="white"/>
<path d="M680.785 858.823C756.079 874.118 836.471 890.588 898.432 940.392C919.216 957.255 932.942 981.961 944.315 1005.88C949.805 1017.65 955.295 1029.8 959.609 1042.75C961.962 1051.37 965.491 1061.18 963.53 1071.37C963.138 1074.12 960.785 1077.65 958.824 1079.61C949.805 1088.63 940.001 1094.12 930.197 1101.18C872.55 1141.18 806.275 1169.41 737.648 1184.31C584.707 1217.65 419.216 1191.76 284.707 1111.37C240.001 1084.31 198.824 1051.37 163.53 1012.55C159.609 1007.84 159.609 1000 159.609 994.902C160.001 983.137 163.138 971.765 167.06 961.176C176.471 936.863 188.628 912.549 209.413 895.686C224.315 885.49 240.393 876.863 256.864 869.804C308.628 847.843 363.138 832.549 419.216 826.274C423.922 825.882 424.707 832.549 420.001 833.333C366.275 844.314 312.942 860.784 263.138 883.137C245.099 892.157 225.883 900 211.373 914.118C197.648 929.02 187.844 947.451 180.001 966.274C174.903 977.647 171.373 995.686 172.942 1004.71C197.648 1034.12 226.667 1060 258.04 1082.35C429.805 1202.35 690.589 1210.2 873.334 1110.2C889.805 1101.18 905.883 1090.98 921.177 1080.39C928.628 1075.29 936.471 1070.98 942.354 1065.1C942.746 1064.71 942.354 1065.1 942.354 1065.49C942.354 1065.88 941.962 1066.27 941.962 1066.27C942.354 1061.57 940.785 1055.29 938.824 1049.02C931.765 1026.27 920.393 1002.35 908.236 981.569C889.02 950.588 856.471 930.98 823.53 915.294C800.785 904.706 776.863 896.471 752.55 888.627C728.236 880.784 703.53 874.118 678.824 868.235C672.55 866.667 674.511 857.647 680.785 858.823Z" fill="#191919"/>
<path d="M1056.08 1334.9H64.3162C64.3162 1334.9 122.748 1211.77 148.63 1071.37C166.669 974.118 180.002 917.256 230.591 885.883C266.277 863.922 342.748 841.177 375.689 829.413C398.042 821.569 402.748 828.236 418.826 823.922C418.826 825.883 419.218 827.452 419.218 829.413C419.218 829.413 461.571 955.295 571.767 1000C661.571 1036.47 714.904 1012.16 723.14 971.765C728.238 945.883 712.159 903.53 703.924 889.805C699.218 885.883 696.081 880.001 694.512 874.118L691.375 861.177C698.826 859.609 705.885 857.648 712.944 855.295C715.297 854.511 717.257 853.726 719.61 852.942C764.708 864.707 861.179 902.746 903.924 941.962C920.787 957.648 960.787 1036.08 986.669 1149.8C1016.47 1278.82 1056.08 1334.9 1056.08 1334.9Z" fill="#191919"/>
<path d="M1065.1 1339.61C769.805 1341.57 355.295 1346.27 64.7068 1345.1C57.648 1345.1 52.55 1337.25 55.6872 1330.98C90.5892 1254.12 118.04 1172.16 135.687 1089.41C137.648 1078.82 141.962 1058.04 143.923 1047.45C152.942 1004.31 160.001 961.569 183.138 921.961C190.981 909.019 201.177 896.863 213.334 887.059C225.099 877.647 238.824 870.588 252.55 864.314C296.472 845.49 340.785 830.588 385.883 816.863C396.472 814.51 407.06 817.255 417.256 814.902C423.138 813.333 429.413 817.647 429.805 823.921L430.197 829.412L419.609 819.608C423.923 819.608 427.844 822.353 429.021 826.274C432.158 835.294 436.472 844.706 440.785 853.725C454.119 880.784 470.589 906.274 490.589 928.627C516.864 958.431 549.805 981.961 587.452 995.294C625.491 1009.41 693.334 1021.57 712.158 976.078C715.295 967.843 714.903 959.216 713.726 950.196C710.981 931.765 704.707 912.157 695.687 895.686L697.648 898.039C691.373 889.804 689.021 880 689.805 870.588V862.353V861.176C689.805 860.392 690.589 859.608 691.374 859.608C696.079 858.039 700.393 856.078 705.099 854.51C709.413 852.549 713.726 850.588 718.04 848.235C719.217 847.451 720.393 847.843 721.57 848.235C747.452 854.902 772.158 863.921 796.864 874.117C833.726 889.412 870.197 906.667 901.962 931.372C913.334 939.608 921.57 951.765 928.236 963.921C941.57 987.451 952.158 1011.76 961.57 1036.47C978.04 1079.61 990.197 1124.31 1000.79 1169.41C1014.12 1219.22 1030.2 1268.63 1054.9 1314.12C1057.65 1318.82 1060.39 1323.53 1063.14 1328.24L1063.92 1329.02V1329.41C1066.28 1331.37 1066.67 1336.86 1065.1 1339.61ZM1047.06 1330.2C1045.1 1332.16 1045.49 1337.65 1047.06 1339.61V1339.22L1046.28 1338.04C1018.82 1292.94 1001.57 1242.35 987.452 1191.76C980.393 1167.06 975.295 1140.39 968.236 1115.29C954.511 1065.88 937.648 1016.08 912.942 970.98C908.628 963.529 903.923 955.294 898.04 949.412C886.668 938.823 873.334 930.196 860.001 921.961C838.04 909.019 814.511 897.647 790.589 887.843C766.668 878.039 742.354 869.019 717.648 862.353L723.53 861.961C712.942 862.745 702.746 863.137 692.55 862.745L694.119 860.392C696.472 864.314 699.217 870.98 701.57 874.51C704.315 878.039 707.452 880.784 710.981 882.353C711.766 883.137 712.55 883.921 712.942 884.706C727.06 911.765 741.177 952.157 730.981 982.353C707.452 1041.57 628.628 1032.16 580.393 1013.73C540.001 1000 503.53 973.725 475.295 941.569C447.06 909.412 424.707 872.549 409.805 832.549L419.217 839.216C413.726 839.216 409.413 835.294 409.021 829.804L408.628 824.706L421.177 833.725C417.256 834.902 412.55 835.294 408.236 835.686C397.256 835.294 389.805 834.902 379.609 838.823C366.275 843.529 352.55 848.235 338.824 852.549C311.766 861.568 285.099 870.98 259.609 882.353C201.57 905.49 184.707 951.765 171.373 1009.41C165.099 1036.08 160.001 1066.27 154.511 1093.33C136.472 1178.04 109.021 1260 73.3343 1339.22L64.3147 1324.71C348.628 1324.71 758.824 1327.45 1047.06 1330.2Z" fill="#191919"/>
<path d="M538.04 1041.18C402.746 980.392 350.197 871.765 360.393 842.353C360.393 842.353 360.393 841.961 360.785 841.569C367.844 827.059 379.217 815.294 393.334 807.059C401.178 802.353 409.805 798.039 416.864 795.686C523.923 769.02 665.883 814.118 713.727 855.294C730.981 876.079 748.629 896.863 755.295 951.765C764.707 1030.98 678.04 1104.31 538.04 1041.18Z" fill="white"/>
<path d="M536.079 1045.49C468.236 1014.9 404.707 967.059 368.629 900.784C361.57 887.059 355.295 872.941 353.334 856.863C352.942 851.373 352.55 844.706 355.295 839.216C363.531 822.745 378.432 809.804 394.903 801.961C407.452 795.294 421.178 790.588 434.903 786.274C454.511 782.745 474.119 781.569 494.119 781.961C559.609 783.922 624.707 801.176 682.746 831.373C687.06 833.725 691.374 836.078 695.687 838.823C697.256 839.608 698.432 840.784 700.393 840.392C702.354 840 703.923 840.784 705.491 841.569C710.197 844.314 714.119 847.843 718.432 851.765C729.021 864.706 739.609 878.431 746.668 894.118C753.727 909.804 757.648 926.667 760.001 943.137C766.276 976.863 754.903 1014.51 728.629 1037.65C675.295 1085.49 595.295 1072.55 536.079 1045.49ZM539.609 1037.25C583.53 1056.47 633.727 1068.63 680.393 1053.73C718.04 1042.35 749.021 1008.24 750.197 968.235C750.589 944.706 745.099 920 735.687 898.431C730.589 885.098 716.472 868.235 709.413 859.608C705.099 856.078 700.393 853.333 696.472 849.804C696.08 849.02 695.687 848.235 695.295 847.451C694.511 845.49 692.942 845.098 691.766 843.922C687.844 841.569 683.53 839.216 679.217 836.863C645.099 819.216 607.452 809.02 569.805 801.569C525.883 793.333 480.785 790.98 436.472 797.255C430.197 798.039 423.531 797.255 417.256 798.823C412.55 800.784 403.923 804.706 398.432 808.627C384.315 816.863 373.727 829.02 366.276 843.529L365.883 843.922C365.883 844.314 365.491 845.098 365.491 845.49C363.53 861.961 371.374 878.823 378.825 894.118C385.491 906.667 393.334 918.823 402.354 930.588C438.432 977.255 486.668 1013.33 539.609 1037.25Z" fill="#191919"/>
<path d="M717.644 963.137C709.409 1003.53 656.075 1027.84 566.271 991.372C472.938 953.725 432.546 863.921 422.35 837.255C477.644 733.725 439.213 661.961 439.213 661.961C566.664 650.98 678.036 800 678.036 800L695.291 873.725C696.86 880 699.997 885.49 704.703 889.412C712.938 903.921 722.742 937.255 717.644 963.137Z" fill="white"/>
<path d="M420.391 838.431C427.842 827.059 432.548 813.726 435.685 800.784C441.567 773.726 443.528 746.275 443.92 718.824V708.627C442.744 698.431 439.214 687.843 435.293 678.431C430.195 665.882 448.626 658.039 454.508 670.588C455.293 672.157 455.293 674.902 455.293 676.471C456.469 729.804 458.822 798.431 425.097 842.745C422.744 845.098 418.038 841.569 420.391 838.431Z" fill="#191919"/>
<path d="M682.35 799.216C688.233 802.745 690.194 807.451 690.978 812.157C693.331 821.569 692.546 831.765 694.899 841.569C696.86 850.981 702.743 860 704.311 869.804C706.272 880 712.154 901.569 714.507 912.157C715.292 914.51 713.723 917.255 710.978 917.647C709.409 918.04 708.233 917.647 707.056 916.863C701.958 912.549 699.605 908.236 696.468 902.745C691.37 893.334 687.841 884.706 684.703 874.118C681.958 864.706 683.135 854.51 680.782 844.706C678.821 835.294 673.331 826.275 671.37 816.471C670.194 811.765 669.801 806.667 673.331 800.785C675.684 798.432 679.605 797.647 682.35 799.216Z" fill="#191919"/>
<path d="M710.587 902.745C635.685 898.823 574.508 875.294 514.901 769.02C565.097 813.333 624.312 830.196 686.665 838.039L694.901 874.117C696.469 880.392 705.881 898.823 710.587 902.745Z" fill="#191919"/>
<path d="M707.451 888.235C720.785 913.333 728.628 944.706 720.392 972.549C714.118 992.157 696.079 1006.67 676.471 1012.16C630.981 1024.31 578.432 1005.1 538.039 983.529C488.236 955.686 451.373 909.019 427.843 858.039C426.275 854.117 431.765 850.98 434.118 854.902C442.353 871.372 451.765 887.451 462.353 901.961C472.941 916.863 485.098 930.588 498.824 942.745C538.824 978.823 592.941 1001.18 647.059 1001.18C702.745 999.608 723.922 970.196 710.981 916.078C709.02 907.451 705.883 898.431 701.569 890.98C699.216 887.843 705.098 884.314 707.451 888.235Z" fill="#191919"/>
<path d="M859.214 417.255C866.273 450.196 860.783 472.157 857.645 563.137C854.508 652.549 828.626 778.824 796.861 810.588C772.547 834.51 694.508 853.334 625.096 835.686C589.802 826.667 559.998 806.275 535.685 791.765C505.096 773.333 478.43 716.471 456.469 680C439.214 651.373 440.783 685.883 418.43 661.177C387.449 627.451 350.194 559.608 368.626 439.608C398.43 245.098 552.547 222.353 666.665 243.922C781.567 265.49 840.391 330.588 859.214 417.255Z" fill="white"/>
<path d="M438.039 695.686C429.02 680.784 417.255 667.451 406.667 653.333C390.981 631.765 379.216 607.059 371.373 581.569C337.255 472.549 358.039 329.804 461.177 265.49C554.902 205.882 736.863 227.451 812.941 309.02C841.569 338.431 860 376.863 867.843 416.863C868.236 419.216 869.412 423.529 869.804 425.882C870.196 427.843 871.373 430.196 870.981 432.549C870.196 441.177 868.628 449.804 867.843 458.431C861.961 510.588 863.53 563.922 856.863 616.078C850.981 670.98 843.138 725.882 826.667 778.824C821.569 794.902 811.765 809.412 798.824 820C769.804 844.314 731.765 852.549 695.294 854.118C622.353 857.647 548.236 831.765 505.883 770.196C504.314 767.843 507.451 765.098 509.412 767.451C544.706 805.49 592.549 829.804 643.53 835.294C700 841.961 785.098 836.863 809.804 776.471C838.432 690.98 853.334 600.392 854.902 510.588C854.902 488.627 853.726 466.667 853.726 444.314C853.726 441.569 854.118 435.294 854.118 432.549C854.118 432.549 854.118 432.157 854.118 432.549C854.118 432.941 854.118 432.941 854.118 432.549C850.981 424.706 849.804 416.078 847.451 408.235C838.824 375.686 823.138 344.706 800.785 320C726.667 236.863 561.569 216.078 469.02 278.431C395.686 327.059 376.079 420.392 370.981 502.745C366.667 564.314 384.706 624.706 431.373 667.059L449.804 686.275C457.647 694.902 444.314 705.098 438.039 695.686Z" fill="#191919"/>
<path d="M484.315 570.98C484.315 570.98 472.158 512.157 414.904 519.215C365.492 525.49 348.237 643.921 460.394 676.863" fill="white"/>
<path d="M455.293 625.491C446.273 620.393 439.999 611.765 439.606 601.177C439.999 593.334 441.175 584.314 439.214 576.471C438.038 569.02 430.195 567.059 424.312 567.451C418.038 568.628 414.116 576.471 412.94 582.746C412.94 583.138 412.548 584.314 412.548 584.706C412.155 586.667 409.018 586.667 408.234 584.706C403.136 569.412 414.508 552.549 430.979 554.51C454.116 556.079 457.253 580.393 452.94 598.824C450.587 606.667 453.724 613.726 458.038 620.393L458.822 621.569C460.783 623.922 457.646 627.059 455.293 625.491Z" fill="#191919"/>
<path d="M769.022 529.412C774.904 557.255 785.885 583.137 799.61 607.451C811.767 637.255 780.394 665.49 752.551 664.313C749.414 664.313 749.022 660 751.767 659.215C769.414 653.725 785.492 641.961 788.237 623.921C789.414 618.431 787.845 613.725 785.1 609.019C772.159 584.706 764.316 556.862 766.277 529.412C766.277 527.451 769.022 527.451 769.022 529.412Z" fill="#191919"/>
<path d="M482.353 571.373C473.334 548.235 453.726 526.275 427.451 526.667C425.098 526.275 421.177 527.059 418.824 527.059C412.157 527.451 406.667 529.804 401.569 534.51C376.471 559.608 380.785 603.922 401.177 631.765C408.236 641.569 417.255 650.196 427.451 657.255C437.647 664.314 449.02 669.804 461.177 674.51C463.922 675.294 462.745 679.608 460 679.216C433.726 673.725 408.628 660.784 391.373 639.216C364.706 607.059 359.216 553.333 390.981 521.961C398.039 515.686 407.843 510.98 417.647 510.98C420.785 510.98 425.49 510.196 428.628 510.98C445.098 511.765 460.785 520 470.981 532.941C480 543.922 485.098 557.255 486.667 570.588C486.667 572.941 483.138 573.725 482.353 571.373Z" fill="#191919"/>
<path d="M730.195 701.961C730.587 714.902 711.371 747.844 674.508 732.549C638.822 718.04 628.234 649.804 679.214 682.353C705.097 699.608 721.567 702.353 730.195 701.961Z" fill="white"/>
<path d="M738.43 702.353C727.842 705.883 717.646 702.746 707.842 699.216C693.332 694.118 681.567 684.706 667.842 678.04C649.018 669.02 641.567 681.177 646.665 698.824C651.763 717.648 668.234 734.118 688.626 734.902C706.665 736.863 725.881 720.393 724.312 701.961C722.744 694.118 734.116 691.765 736.077 699.216C735.685 712.55 727.45 721.961 718.822 729.804C701.567 743.922 675.293 740.785 658.038 727.844C644.704 717.255 633.724 700.393 636.077 682.353C636.861 674.51 644.312 665.491 652.548 665.099C671.763 663.53 683.136 676.471 698.038 685.099C709.802 691.765 723.136 700.001 736.861 698.824C739.214 698.04 740.783 701.177 738.43 702.353Z" fill="#191919"/>
<path d="M647.448 687.843C653.722 696.863 663.526 701.569 673.722 703.922C676.075 704.706 678.036 704.706 679.997 704.706C683.526 704.706 687.056 707.451 689.016 709.412C698.428 716.863 711.369 718.039 723.134 718.431C725.879 718.431 725.879 723.137 723.134 722.745C710.585 721.961 697.252 720.784 685.487 714.902C683.134 714.118 681.957 713.333 679.997 713.333C672.546 714.118 666.663 709.412 661.173 706.274C654.899 702.745 648.624 699.216 641.173 697.647C637.644 696.863 635.683 693.725 636.075 690.196C636.859 684.706 644.703 683.137 647.448 687.843Z" fill="#191919"/>
<path d="M680.39 487.843C689.018 489.02 695.685 480 692.547 471.373C690.979 466.667 688.234 462.353 683.92 459.608C670.587 451.373 620.783 450.589 594.508 469.412C570.979 486.667 641.175 482.353 680.39 487.843Z" fill="#191919"/>
<path d="M789.018 492.157C781.959 492.157 777.645 483.138 781.175 475.687C783.135 471.765 785.881 468.236 789.802 466.275C801.959 460.393 834.508 463.922 849.018 483.922C861.959 501.569 821.567 491.765 789.018 492.157Z" fill="#191919"/>
<path d="M665.881 538.432C645.881 529.804 623.136 532.157 602.351 536.863C599.998 537.647 598.43 534.51 600.391 532.941C618.43 518.04 652.547 516.079 667.057 536.471C668.234 537.255 667.449 538.824 665.881 538.432Z" fill="#191919"/>
<path d="M819.998 546.667C810.586 540 796.861 541.177 785.881 542.353C781.959 542.746 778.037 543.53 773.724 544.706C772.547 545.099 771.371 543.138 772.155 542.353L772.939 541.569C782.743 531.373 798.037 529.02 811.371 534.118C816.077 536.079 820.783 538.824 823.135 544.314C824.312 546.275 821.567 548.236 819.998 546.667Z" fill="#191919"/>
<path d="M909.804 443.529C898.823 477.647 872.549 506.274 855.686 525.49C859.608 507.059 856.078 496.078 856.863 483.137C858.039 465.49 864.314 445.882 863.137 438.039C862.353 430.98 860.784 424.314 859.215 417.255C857.255 408.627 854.902 400.392 852.157 392.157C790.588 452.157 685.098 392.941 685.098 392.941C685.098 392.941 662.745 411.372 623.529 407.059C581.568 402.745 570.196 376.863 570.196 376.863C558.823 456.078 483.921 425.882 497.647 504.706C501.568 526.274 501.568 547.059 483.137 568.627C480 557.647 464.706 512.941 414.51 519.216C367.059 525.098 349.019 634.902 447.059 672.549C445.882 709.02 449.804 758.431 445.882 745.49C418.431 660.784 363.529 674.118 337.647 610.196C325.49 579.608 327.451 552.549 333.725 532.549C340 513.333 339.608 492.549 333.333 473.333C326.274 450.98 320.784 417.255 333.725 376.47C355.686 306.667 402.745 290.588 414.902 282.353C427.059 274.118 421.176 198.823 506.274 175.294C574.117 156.471 625.098 196.078 640 193.333C654.902 190.588 759.215 121.961 839.608 186.667C917.255 249.412 888.235 323.529 888.235 323.529C888.235 323.529 936.47 360.784 909.804 443.529Z" fill="#191919"/>
<path d="M1130.2 330.588C1368.24 789.02 949.804 1306.27 450.981 1180C227.059 1124.31 47.0589 930.196 9.80403 702.353C-32.5489 475.686 69.804 232.157 261.177 103.922C523.53 -76.4704 887.059 -16.4704 1074.9 241.569C1076.08 242.745 1075.69 244.706 1074.12 245.883C1072.94 247.059 1070.98 246.667 1069.8 245.098C1043.92 211.765 1014.51 181.569 982.353 154.51C929.412 109.412 867.451 74.1179 801.961 50.1963C468.628 -70.588 102.745 130.196 29.804 478.824C-52.5489 869.412 279.608 1229.02 675.686 1175.29C981.177 1136.86 1208.24 854.902 1183.14 548.235C1177.65 474.118 1158.04 400.785 1125.49 333.334C1124.71 332.157 1125.49 330.588 1126.67 329.804C1127.84 329.02 1129.41 329.412 1130.2 330.588Z" fill="#191919"/>
</g>
</svg>
