<?xml version="1.0" encoding="utf-8"?>
<!-- Generator: Adobe Illustrator 16.0.0, SVG Export Plug-In . SVG Version: 6.00 Build 0)  -->
<!DOCTYPE svg PUBLIC "-//W3C//DTD SVG 1.1//EN" "http://www.w3.org/Graphics/SVG/1.1/DTD/svg11.dtd">
<svg version="1.1" id="Layer_1" xmlns="http://www.w3.org/2000/svg" xmlns:xlink="http://www.w3.org/1999/xlink" x="0px" y="0px"
	 width="565.898px" height="411.111px" viewBox="0 0 565.898 411.111" enable-background="new 0 0 565.898 411.111"
	 xml:space="preserve">
<g>
	<g>
		<path fill="#373A50" d="M438.248,135.987c-2.521-30.152-17.53-53.375-38.431-65.735c-20.189-11.961-44.955-14.025-67.285-6.194
			C313.497,33.298,278.705,8.89,233.383,8.89c-65.468,0-112.948,52.386-116.428,109.688c-40.66,13.552-69.745,51.826-68.243,96.72
			c0.09,2.806,0.319,5.584,0.659,8.325h21.013c-0.387-2.65-0.636-5.344-0.75-8.079c-1.523-38.005,24.378-70.044,59.646-78.862
			c4.707-1.234,7.982-5.451,7.913-10.253c-0.478-48.888,39.546-96.337,95.985-96.337c41,0,71.43,23.444,85.595,51.422
			c1.249,2.489,3.435,4.373,6.096,5.271c2.659,0.876,5.571,0.695,8.098-0.561c17.802-8.771,39.017-7.763,55.732,2.133
			c16.715,9.893,29.197,28.222,29.197,56.291c0,2.536,0.935,4.89,2.479,6.708c1.573,1.816,3.751,3.118,6.277,3.544
			c31.701,5.251,54.579,36.479,54.579,67.869c0,0.291,0,0.581-0.024,0.854h21.329c0.024-0.405,0.024-0.835,0.024-1.235
			C502.56,183.798,476.998,146.42,438.248,135.987"/>
		<path fill="#9198CB" d="M368.341,404.222H12.051c-2.696,0-4.88-2.184-4.88-4.881v-19.522c0-2.698,2.184-4.881,4.88-4.881h356.29
			c2.698,0,4.881,2.183,4.881,4.881v19.522C373.222,402.038,371.039,404.222,368.341,404.222"/>
		<path fill="#FBC0AA" d="M507.439,404.222h-19.522c-2.697,0-4.881-2.184-4.881-4.881v-19.522c0-2.698,2.184-4.881,4.881-4.881
			h19.522c2.698,0,4.881,2.183,4.881,4.881v19.522C512.32,402.038,510.138,404.222,507.439,404.222"/>
		<path fill="#FDCA9B" d="M461.073,404.222h-19.522c-2.697,0-4.881-2.184-4.881-4.881v-19.522c0-2.698,2.184-4.881,4.881-4.881
			h19.522c2.698,0,4.881,2.183,4.881,4.881v19.522C465.954,402.038,463.771,404.222,461.073,404.222"/>
		<path fill="#F3713A" d="M414.707,404.222h-19.522c-2.697,0-4.881-2.184-4.881-4.881v-19.522c0-2.698,2.184-4.881,4.881-4.881
			h19.522c2.698,0,4.881,2.183,4.881,4.881v19.522C419.588,402.038,417.405,404.222,414.707,404.222"/>
		<path fill="#B1C995" d="M553.807,404.222h-19.523c-2.697,0-4.88-2.184-4.88-4.881v-19.522c0-2.698,2.183-4.881,4.88-4.881h19.523
			c2.697,0,4.88,2.183,4.88,4.881v19.522C558.687,402.038,556.504,404.222,553.807,404.222"/>
	</g>
	<g>
		<path fill="#373A50" d="M137.078,353.122H84.912V311.13c0-8.296-11.321-7.394-11.321-7.394H51.46v49.385H7.126V228.514h80.787
			c24.473,0,47.994,9.684,47.994,33.23s-23.302,31.867-23.302,31.867C138.664,300.979,137.078,353.122,137.078,353.122z
			 M85.668,279.581c1.716-1.717,2.229-4.299,1.3-6.542c-0.929-2.242-3.118-3.705-5.545-3.706H51.458v12.003h29.965
			c1.593,0.006,3.122-0.627,4.245-1.757V279.581z"/>
		<path fill="#373A50" d="M190.599,271.253v10.15h55.321v19.193h-55.321v10.15h92.424v42.74H147.859V228.513h135.164v42.74H190.599z
			"/>
		<path fill="#373A50" d="M418.222,228.513l-44.16,124.679h-43.093l-44.16-124.679h44.16l21.547,62.75l21.546-62.75H418.222z"/>
	</g>
	<g>
		<path fill="#373A50" d="M558.935,265.615v52.989c-0.001,20.576-16.682,37.257-37.259,37.258h-60.638
			c-9.882,0.002-19.36-3.923-26.348-10.91c-6.988-6.988-10.912-16.466-10.91-26.348v-52.989c-0.002-9.882,3.923-19.359,10.91-26.347
			s16.465-10.912,26.347-10.911h60.638C542.252,228.358,558.933,245.038,558.935,265.615z M510.307,279.098
			c-0.003-6.783-5.504-12.278-12.286-12.275h-13.343c-6.777,0.003-12.271,5.496-12.272,12.273v26.027
			c0.002,6.777,5.495,12.271,12.272,12.273h13.343c6.782,0.004,12.283-5.491,12.287-12.273L510.307,279.098z"/>
	</g>
</g>
</svg>
